<svg xmlns="http://www.w3.org/2000/svg" width="343.05395" height="558.97664" viewBox="0 0 343.05395 558.97664" xmlns:xlink="http://www.w3.org/1999/xlink"><g><path d="M293.33577,558.97664H50.72727c-26.30202,0-47.70052-21.3985-47.70052-47.70101V47.70052C3.02675,21.3985,24.42526,0,50.72727,0h242.60849c26.30153,0,47.70003,21.3985,47.70003,47.70052V511.27562c0,26.30251-21.3985,47.70101-47.70003,47.70101Z" fill="#3f3d56"/><path d="M341.03599,170.51815c-1.11293,0-2.01796,.90503-2.01796,2.01796v64.57486c0,1.11293,.90503,2.01796,2.01796,2.01796s2.01796-.90503,2.01796-2.01796v-64.57486c0-1.11293-.90503-2.01796-2.01796-2.01796Z" fill="#3f3d56"/><path d="M336.49581,47.70087V511.26766c0,22.89381-17.8186,41.62052-40.34919,43.07345h-.0101c-.33298,.0202-.6659,.0404-1.00898,.0505-.59533,.03024-1.19059,.04034-1.79596,.04034,0,0-2.21977-.16147-6.2759-.46415-4.09647-.30268-10.05952-.75674-17.49578-1.352-2.22981-.17157-4.58076-.36328-7.06288-.56503-4.94398-.40362-10.37231-.84757-16.19415-1.35206-2.32065-.19171-4.72203-.40356-7.17385-.61546-12.53154-1.07962-26.56652-2.34085-41.36827-3.77358-2.50226-.23211-5.02471-.47425-7.56737-.7265-.6659-.07064-1.34196-.13117-2.01796-.20181-10.55398-1.03922-21.40053-2.15918-32.28743-3.34977-.676-.07064-1.35206-.14127-2.01796-.21191-18.75701-2.0684-37.58459-4.31847-55.20144-6.73999-13.55062-1.85655-26.38485-3.81398-37.90741-5.84205-3.75345-.6659-7.36562-1.3318-10.81632-2.00786-.676-.13117-1.35206-.26235-2.01796-.40356-24.38708-4.8835-40.35929-10.15036-40.35929-15.55855V47.70087C7.5676,23.85868,26.88964,4.53664,50.73189,4.53664h25.76938c4.11666,0,7.42609,3.20856,7.77928,7.31512,.03024,.27244,.06054,.54483,.11097,.81727,.74664,4.12676,4.53032,7.00234,8.72766,7.00234H250.94423c4.19734,0,7.98102-2.87557,8.72766-7.00234,.05044-.27244,.08074-.54483,.11103-.81727,.35312-4.10656,3.66255-7.31512,7.77921-7.31512h25.76945c23.84219,0,43.16423,19.32203,43.16423,43.16423Z" fill="#fff"/><path d="M2.01796,122.08701c-1.11293,0-2.01796,.90503-2.01796,2.01796v16.14372c0,1.11293,.90503,2.01796,2.01796,2.01796s2.01796-.90503,2.01796-2.01796v-16.14372c0-1.11293-.90503-2.01796-2.01796-2.01796Z" fill="#3f3d56"/><path d="M2.01796,170.51815c-1.11293,0-2.01796,.90503-2.01796,2.01796v31.27845c0,1.11293,.90503,2.01796,2.01796,2.01796s2.01796-.90503,2.01796-2.01796v-31.27845c0-1.11293-.90503-2.01796-2.01796-2.01796Z" fill="#3f3d56"/><path d="M2.01796,214.91337c-1.11293,0-2.01796,.90503-2.01796,2.01796v31.27845c0,1.11293,.90503,2.01796,2.01796,2.01796s2.01796-.90503,2.01796-2.01796v-31.27845c0-1.11293-.90503-2.01796-2.01796-2.01796Z" fill="#3f3d56"/><rect x="36.82785" y="11.60346" width="39.35031" height="5.04491" rx=".31021" ry=".31021" fill="#3f3d56"/><circle cx="273.93867" cy="12.61244" r="4.03593" fill="#3f3d56"/><circle cx="285.03747" cy="12.61244" r="4.03593" fill="#3f3d56"/><circle cx="296.13628" cy="12.61244" r="4.03593" fill="#3f3d56"/></g><path d="M235.18498,534.61249c2.06592,.12937,3.20768-2.43737,1.64468-3.93333l-.1555-.61819c.02047-.04951,.04105-.09897,.06178-.14839,2.08924-4.9818,9.16992-4.94742,11.24139,.04177,1.83859,4.42817,4.17942,8.86389,4.75579,13.54594,.25838,2.0668,.14213,4.17236-.31648,6.20047,4.30807-9.41059,6.57515-19.68661,6.57515-30.02077,0-2.59652-.14213-5.19301-.43275-7.78295-.239-2.11854-.56839-4.2241-.99471-6.31034-2.30575-11.2772-7.29852-22.01825-14.50012-30.98962-3.46197-1.89248-6.34906-4.85065-8.09295-8.39652-.62649-1.27891-1.11739-2.65462-1.34991-4.05618,.39398,.05168,1.48556-5.94866,1.18841-6.3168,.54906-.83317,1.53178-1.24733,2.13144-2.06034,2.98232-4.04341,7.0912-3.33741,9.23621,2.15727,4.58224,2.31266,4.62659,6.14806,1.81495,9.83683-1.78878,2.34682-2.03456,5.52233-3.60408,8.03478,.16151,.20671,.32944,.40695,.4909,.61366,2.96106,3.79788,5.52208,7.88002,7.68104,12.16859-.61017-4.76621,.29067-10.50822,1.82641-14.20959,1.74819-4.21732,5.02491-7.76915,7.91045-11.41501,3.46601-4.37924,10.57337-2.46806,11.18401,3.08332,.00591,.05375,.01166,.10745,.01731,.1612-.4286,.24178-.84849,.49867-1.25864,.76992-2.33949,1.54723-1.53096,5.17386,1.24107,5.60174l.06277,.00967c-.15503,1.54366-.41984,3.07444-.80734,4.57937,3.70179,14.31579-4.29011,19.5299-15.70147,19.76412-.25191,.12916-.49738,.25832-.74929,.38109,1.15617,3.25525,2.07982,6.59447,2.76441,9.97891,.61359,2.99043,1.03991,6.01317,1.27885,9.04888,.29715,3.83006,.27129,7.67959-.05168,11.50323l.01939-.13562c.82024-4.21115,3.10671-8.14462,6.4266-10.87028,4.94561-4.06264,11.93282-5.55869,17.26826-8.82425,2.56833-1.57196,5.85945,.45945,5.41121,3.43708l-.02182,.14261c-.79443,.32289-1.56947,.69755-2.31871,1.11733-.4286,.24184-.84848,.49867-1.25864,.76992-2.33949,1.54729-1.53096,5.17392,1.24107,5.6018l.06282,.00965c.0452,.00646,.08397,.01295,.12911,.01944-1.36282,3.23581-3.26168,6.23922-5.63854,8.82922-2.31463,12.49713-12.25603,13.68282-22.89022,10.04354h-.00648c-1.16259,5.06378-2.86128,10.01127-5.0444,14.72621h-18.02019c-.06463-.20022-.12274-.40692-.18089-.60717,1.6664,.10341,3.34571,.00649,4.98629-.29702-1.33701-1.64059-2.67396-3.29409-4.01097-4.93462-.03229-.0323-.05816-.0646-.08397-.09689-.67817-.8396-1.36282-1.67283-2.04099-2.51246l-.00036-.00102c-.04245-2.57755,.26652-5.14662,.87876-7.63984l.00057-.00035Z" fill="#f2f2f2"/><path d="M196.70447,156.31335l-.00014,.00005-.00005-.00014c-15.29581-39.41384-59.64665-58.96533-99.0605-43.66951l-.00027,.00011c-39.03993,15.1507-58.5711,58.80485-44.07403,97.93462l-1.14326,.44368,55.39109,142.73028,131.3376-50.96979c4.34218-.85818,8.67075-2.08195,12.94037-3.73891l.00027-.00011c39.41384-15.29581,58.96527-59.64679,43.66946-99.06063l-.00005-.00014c-15.29581-39.41384-59.64665-58.96533-99.0605-43.66951Z" fill="#0d6efd"/><path d="M283.68336,89.59134h-.00002c-1.81676-4.68138-7.08452-7.0036-11.76589-5.18685h-.00003c-4.63696,1.79953-6.95677,6.98455-5.23488,11.63217l-.13579,.0527,6.57906,16.95276,15.59959-6.05393c.51574-.10193,1.02987-.24728,1.53699-.44409h.00003c4.68137-1.81677,7.00359-7.08455,5.18683-11.76592v-.00002c-1.81676-4.68137-7.08452-7.00359-11.76589-5.18684Z" fill="#0d6efd"/><path d="M62.92858,63.47844v.00002h-.00002c-4.99959-.46893-9.4327,3.20389-9.90162,8.20349v.00003c-.46448,4.95216,3.13541,9.3461,8.06239,9.88478l-.0136,.14502,18.10515,1.69814,1.56259-16.66c.13951-.50687,.23946-1.03171,.29026-1.57331v-.00003c.46893-4.99959-3.20391-9.4327-8.2035-9.90163h-.00002c-4.99959-.46893-9.4327,3.20389-9.90162,8.20349Z" fill="#0d6efd"/><g><g><polygon points="125.99058 500.71229 127.87652 513.99814 127.87652 514.03186 128.49955 518.45204 129.50989 525.54955 129.50989 525.55798 129.93086 528.54691 130.56231 532.99228 136.20328 532.87439 137.88716 532.83226 138.77124 532.8155 138.68701 528.89203 138.47653 518.48565 138.09764 500.45967 138.0219 500.45967 136.33802 500.49338 129.61092 500.63644 127.92703 500.67015 125.99058 500.71229" fill="#ffb6b6"/><path d="M112.8647,546.63178c.05051,2.029,1.72597,3.63714,3.74665,3.5951l2.69422-.05899,1.68388-.03371,6.7271-.13464,1.69231-.03371,3.51931-.07585,2.68579-5.87673,.53043,2.5174v.00843l.69035,3.26684,.98511-.01686,5.16953-.10956-2.15542-20.7032-2.14694-.08428-.783-.03371-1.68388-.06732-6.28085-.24409h-.00843l-.43783-.01686-1.68388-.06742-.69883-.02528,.12631,5.87673-6.19667,4.47076-1.69231,1.22077-4.95904,3.57825c-.97663,.7073-1.54919,1.8439-1.52391,3.04792Z" fill="#2f2e41"/></g><g><polygon points="191.27543 499.75 195.94832 512.32913 195.9555 512.36207 197.50585 516.54808 200.00496 523.26744 200.00675 523.27568 201.05478 526.10632 202.61873 530.31514 208.1051 528.99828 209.74135 528.5984 210.60157 528.3937 209.68347 524.57823 207.26098 514.45555 203.05078 496.92404 202.97677 496.94018 201.33872 497.33183 194.79651 498.90466 193.15846 499.29631 191.27543 499.75" fill="#ffb6b6"/><path d="M188.23291,547.41163c.48159,1.97167,2.46116,3.18598,4.4265,2.71445l2.61981-.63158,1.63805-.39165,6.54401-1.5646,1.64628-.39344,3.42237-.82381,1.37224-6.31398,1.05452,2.34662,.0018,.00823,1.37042,3.04479,.95891-.22632,5.02753-1.20829-6.51628-19.76882-2.11561,.37501-.77221,.13386-1.65957,.29294-6.18868,1.0995-.00823,.0018-.43137,.0768-1.65959,.29284-.68817,.12417,1.37531,5.71493-5.10205,5.68819-1.39341,1.55326-4.08295,4.55252c-.80354,.89912-1.12083,2.1316-.83964,3.3026Z" fill="#2f2e41"/></g><path d="M139.96952,251.18066l-5.85657,24.75094c17.6585,9.78243,35.10707,12.99626,42.68574,1.33018l9.91749-21.71909-46.74666-4.36203Z" fill="#ffb6b6"/><path d="M175.35609,277.46409c-1.01085,6.78028-15.67522-6.66185-40.99786-2.15778l-17.26226,57.54086v181.97297l32.36673,1.43852-7.91187-96.38094,16.18337-44.9538-5.03483,43.15565,36.01684,98.17909h26.09727l-27.5896-87.39018,4.31556-76.9609s10.06965-30.20895-7.91187-54.66382l-8.2715-19.77967Z" fill="#2f2e41"/><path d="M180.39091,272.42927l-45.17089-10.91534-.29431-14.33308s-7.87508-7.37453,.0409-20.45784l19.78997-32.70828,1.83306-6.16659,15.35976-2.71114,16.47335,17.54292,2.74947,44.29038-10.78132,25.45896Z" fill="#e6e6e6"/><path d="M121.93064,178.62324l-14.77867,25.12588-10.67715-3.4974,18.78451-25.72864c-.36353-1.08444-.42993-2.2821-.11933-3.47133,.8507-3.25748,4.18105-5.20854,7.43856-4.35779,3.25748,.8507,5.2085,4.18104,4.3578,7.43851-.63662,2.43752-2.66176,4.14278-5.00572,4.49077Z" fill="#ffb6b6"/><path d="M169.50546,213.17389l2.0594-9.39011s-1.60562-6.08831-12.6919-5.72442c-11.08628,.3639-48.88836,5.44337-48.88836,5.44337l4.01032-6.28426,1.12475-6.04156-10.79152-3.20785-5.1923,3.79795-1.47392,3.95212,.95836,1.2916-2.74582,2.40868c-2.7532,6.76602,.2997,14.50105,6.93179,17.56283h.00001l2.70236,1.89151,3.68904,1.22817,4.02858-1.24206,56.27921-5.68597Z" fill="#e6e6e6"/><path d="M207.47984,307.73333l-9.77884-27.46075,9.53564-5.9418,7.66956,30.91923c1.06487,.41739,2.02583,1.13528,2.7383,2.13684,1.95163,2.74335,1.3098,6.54939-1.43361,8.50101-2.74335,1.95163-6.54936,1.30978-8.50099-1.43357-1.46034-2.05284-1.46788-4.70031-.23006-6.72096Z" fill="#ffb6b6"/><path d="M174.78962,205.14045l8.11764-5.14967s6.2701-.57575,9.7236,9.96519,12.74779,54.17248,12.74779,54.17248l3.57446,5.20982,.27947,1.58332,3.13332,4.4515-1.12689,1.60997,4.2572,2.35081-15.90213,9.17859-5.30602-8.70011,.88314-4.3246-2.70236-1.8915-2.41691-3.04565-.21219-4.21036-15.05012-61.19977Z" fill="#e6e6e6"/><path d="M152.25013,175.44786l9.36003,7.90545-9.39112-29.13903-1.39276,1.03342c-1.45216,1.07749-2.18401,2.87359-1.89846,4.65914l3.3223,15.54102Z" fill="#2f2e41"/><circle cx="164.21637" cy="166.30938" r="15.66636" fill="#ffb6b6"/><path d="M199.1132,192.75879s-32.99354,5.15899-42.39274,3.34142c-.7102-2.16073-.73085-4.55275,.00674-6.70611-.63927,1.67595-5.90057,8.07515-5.90057,8.07515,.79385-7.03571,.71034-12.5273,4.25856-17.04648,5.64857-7.18331-1.5522-14.91795-5.79361-22.56135-.45765-2.09574,.49856-4.25113,2.36268-5.31785,0,0,10.99192-7.98773,18.41165-5.05384,6.33111-3.23562,19.98265,5.62456,21.41666,13.74887,.12502,.70831,6.48152,29.43684,7.63063,31.52019Z" fill="#2f2e41"/></g></svg>